<svg xmlns="http://www.w3.org/2000/svg" viewBox="0 0 800 600" width="800" height="600">
  <!-- Background -->
  <rect width="800" height="600" fill="#0f172a"/>
  
  <!-- Grid pattern -->
  <defs>
    <pattern id="grid" width="40" height="40" patternUnits="userSpaceOnUse">
      <path d="M 40 0 L 0 0 0 40" fill="none" stroke="#1e293b" stroke-width="1"/>
    </pattern>
    
    <!-- Gradient for team circles -->
    <linearGradient id="gradient1" x1="0%" y1="0%" x2="100%" y2="100%">
      <stop offset="0%" style="stop-color:#3b82f6;stop-opacity:1" />
      <stop offset="100%" style="stop-color:#8b5cf6;stop-opacity:1" />
    </linearGradient>
    
    <linearGradient id="gradient2" x1="0%" y1="0%" x2="100%" y2="100%">
      <stop offset="0%" style="stop-color:#06b6d4;stop-opacity:1" />
      <stop offset="100%" style="stop-color:#3b82f6;stop-opacity:1" />
    </linearGradient>
    
    <linearGradient id="gradient3" x1="0%" y1="0%" x2="100%" y2="100%">
      <stop offset="0%" style="stop-color:#8b5cf6;stop-opacity:1" />
      <stop offset="100%" style="stop-color:#ec4899;stop-opacity:1" />
    </linearGradient>
  </defs>
  
  <rect width="800" height="600" fill="url(#grid)" opacity="0.3"/>
  
  <!-- Signal waves in background -->
  <path d="M 0 300 Q 100 250 200 300 T 400 300 T 600 300 T 800 300" 
        stroke="#1e40af" stroke-width="2" fill="none" opacity="0.3"/>
  <path d="M 0 320 Q 100 280 200 320 T 400 320 T 600 320 T 800 320" 
        stroke="#1e40af" stroke-width="2" fill="none" opacity="0.2"/>
  <path d="M 0 280 Q 100 240 200 280 T 400 280 T 600 280 T 800 280" 
        stroke="#1e40af" stroke-width="2" fill="none" opacity="0.2"/>
  
  <!-- Team member representations as connected nodes -->
  <!-- Center figure (larger) -->
  <circle cx="400" cy="280" r="60" fill="url(#gradient1)" opacity="0.9"/>
  <circle cx="400" cy="280" r="55" fill="none" stroke="#60a5fa" stroke-width="2" opacity="0.5"/>
  
  <!-- Left top figure -->
  <circle cx="250" cy="220" r="45" fill="url(#gradient2)" opacity="0.9"/>
  <circle cx="250" cy="220" r="40" fill="none" stroke="#22d3ee" stroke-width="2" opacity="0.5"/>
  
  <!-- Right top figure -->
  <circle cx="550" cy="220" r="45" fill="url(#gradient3)" opacity="0.9"/>
  <circle cx="550" cy="220" r="40" fill="none" stroke="#a78bfa" stroke-width="2" opacity="0.5"/>
  
  <!-- Left bottom figure -->
  <circle cx="280" cy="380" r="40" fill="url(#gradient2)" opacity="0.8"/>
  <circle cx="280" cy="380" r="35" fill="none" stroke="#22d3ee" stroke-width="2" opacity="0.5"/>
  
  <!-- Right bottom figure -->
  <circle cx="520" cy="380" r="40" fill="url(#gradient3)" opacity="0.8"/>
  <circle cx="520" cy="380" r="35" fill="none" stroke="#a78bfa" stroke-width="2" opacity="0.5"/>
  
  <!-- Connection lines between team members -->
  <line x1="250" y1="220" x2="400" y2="280" stroke="#3b82f6" stroke-width="2" opacity="0.4"/>
  <line x1="550" y1="220" x2="400" y2="280" stroke="#8b5cf6" stroke-width="2" opacity="0.4"/>
  <line x1="280" y1="380" x2="400" y2="280" stroke="#06b6d4" stroke-width="2" opacity="0.4"/>
  <line x1="520" y1="380" x2="400" y2="280" stroke="#a78bfa" stroke-width="2" opacity="0.4"/>
  <line x1="250" y1="220" x2="280" y2="380" stroke="#3b82f6" stroke-width="1.5" opacity="0.3"/>
  <line x1="550" y1="220" x2="520" y2="380" stroke="#8b5cf6" stroke-width="1.5" opacity="0.3"/>
  
  <!-- Additional team members for more depth -->
  <circle cx="180" cy="300" r="35" fill="url(#gradient1)" opacity="0.7"/>
  <circle cx="180" cy="300" r="30" fill="none" stroke="#60a5fa" stroke-width="2" opacity="0.4"/>
  
  <circle cx="620" cy="300" r="35" fill="url(#gradient3)" opacity="0.7"/>
  <circle cx="620" cy="300" r="30" fill="none" stroke="#a78bfa" stroke-width="2" opacity="0.4"/>
  
  <!-- Additional connections -->
  <line x1="180" y1="300" x2="250" y2="220" stroke="#3b82f6" stroke-width="1.5" opacity="0.3"/>
  <line x1="180" y1="300" x2="280" y2="380" stroke="#3b82f6" stroke-width="1.5" opacity="0.3"/>
  <line x1="620" y1="300" x2="550" y2="220" stroke="#8b5cf6" stroke-width="1.5" opacity="0.3"/>
  <line x1="620" y1="300" x2="520" y2="380" stroke="#8b5cf6" stroke-width="1.5" opacity="0.3"/>
  
  <!-- Enhanced particle effects and data points -->
  <circle cx="320" cy="250" r="3" fill="#60a5fa" opacity="0.8"/>
  <circle cx="480" cy="250" r="3" fill="#a78bfa" opacity="0.8"/>
  <circle cx="350" cy="340" r="3" fill="#22d3ee" opacity="0.8"/>
  <circle cx="450" cy="340" r="3" fill="#ec4899" opacity="0.8"/>
  <circle cx="400" cy="200" r="2" fill="#60a5fa" opacity="0.6"/>
  <circle cx="400" cy="360" r="2" fill="#a78bfa" opacity="0.6"/>
  
  <!-- Additional decorative particles -->
  <circle cx="220" cy="260" r="2" fill="#22d3ee" opacity="0.7"/>
  <circle cx="580" cy="260" r="2" fill="#ec4899" opacity="0.7"/>
  <circle cx="330" cy="310" r="2" fill="#60a5fa" opacity="0.6"/>
  <circle cx="470" cy="310" r="2" fill="#a78bfa" opacity="0.6"/>
  <circle cx="365" cy="235" r="2" fill="#3b82f6" opacity="0.7"/>
  <circle cx="435" cy="235" r="2" fill="#8b5cf6" opacity="0.7"/>
  
  <!-- Outer decorative elements -->
  <circle cx="150" cy="150" r="4" fill="#3b82f6" opacity="0.5"/>
  <circle cx="650" cy="150" r="4" fill="#8b5cf6" opacity="0.5"/>
  <circle cx="150" cy="450" r="4" fill="#06b6d4" opacity="0.5"/>
  <circle cx="650" cy="450" r="4" fill="#ec4899" opacity="0.5"/>
  
  <!-- Additional corner accents -->
  <circle cx="120" cy="120" r="2" fill="#3b82f6" opacity="0.4"/>
  <circle cx="680" cy="120" r="2" fill="#8b5cf6" opacity="0.4"/>
  <circle cx="120" cy="480" r="2" fill="#06b6d4" opacity="0.4"/>
  <circle cx="680" cy="480" r="2" fill="#ec4899" opacity="0.4"/>
  
  <!-- Subtle glow effects on main nodes -->
  <circle cx="400" cy="280" r="70" fill="url(#gradient1)" opacity="0.1"/>
  <circle cx="250" cy="220" r="55" fill="url(#gradient2)" opacity="0.1"/>
  <circle cx="550" cy="220" r="55" fill="url(#gradient3)" opacity="0.1"/>
</svg>